<svg version="1.1" xmlns="http://www.w3.org/2000/svg" xmlns:xlink="http://www.w3.org/1999/xlink" fill="#000000" x="0px" y="0px" viewBox="0 0 1000 1000" enable-background="new 0 0 1000 1000" xml:space="preserve" width="25px" heigth="25px">
<g><g transform="translate(0.000000,511.000000) scale(0.100000,-0.100000)"><path d="M1916.4,4915.3c-904.5-385.6-1570.6-937.2-1766.9-1456.1c-44.4-116.9-51.4-182.3-49.1-462.8c2.3-607.7,149.6-1280.8,446.4-2033.4C951.1-60.6,1547.1-983.8,2409.6-1923.4c1537.9-1673.4,3604-2776.6,5377.9-2865.4c331.9-18.7,486.1,11.7,745.6,147.2c432.4,224.4,965.3,937.2,1285.5,1717.9c93.5,224.4,100.5,271.1,51.4,364.6C9830.2-2481.9,7673-948.7,7539.8-902c-95.8,30.4-203.3,21-306.2-30.4c-35.1-18.7-226.7-233.7-427.7-476.8c-409-497.8-465.1-542.2-691.8-544.6c-123.9,0-158.9,11.7-446.4,170.6C4372.8-1075,3809.6-511.7,3101.4,783.1c-158.9,289.8-170.6,322.6-170.6,448.8c2.3,224.4,53.8,289.8,544.6,691.8c238.4,194,451.1,388,476.8,427.7c49.1,86.5,56.1,271.1,14,355.3c-16.4,30.4-378.6,549.2-804,1149.9c-497.8,708.2-794.7,1107.8-836.7,1128.9C2229.6,5034.5,2175.8,5025.2,1916.4,4915.3z"/></g></g>
</svg>