<svg version="1.1" id="Layer_1" xmlns="http://www.w3.org/2000/svg" xmlns:xlink="http://www.w3.org/1999/xlink" x="0px" y="0px"
	 viewBox="0 0 512 512" style="enable-background:new 0 0 512 512;" xml:space="preserve" fill="#ffffff" width="40" height="40">
<g>
	<path d="M471.6,147.3c-5.2-19.5-20.4-34.8-39.8-40C396.7,97.8,256,97.8,256,97.8s-140.7,0-175.8,9.5c-19.4,5.2-34.6,20.6-39.8,40
		c-9.4,35.3-9.4,109-9.4,109s0,73.7,9.4,109c5.2,19.5,20.4,34.2,39.8,39.4c35.1,9.5,175.8,9.5,175.8,9.5s140.7,0,175.8-9.5
		c19.4-5.2,34.6-19.9,39.8-39.4c9.4-35.3,9.4-109,9.4-109S481,182.6,471.6,147.3z M210,323.2V189.4l117.6,66.9L210,323.2L210,323.2z
		"/>
</g>
</svg>
