<?xml version="1.0" standalone="no"?>
<!DOCTYPE svg PUBLIC "-//W3C//DTD SVG 20010904//EN"
 "http://www.w3.org/TR/2001/REC-SVG-20010904/DTD/svg10.dtd">
<svg version="1.0" xmlns="http://www.w3.org/2000/svg"
 width="120.000000pt" height="94.000000pt" viewBox="0 0 120.000000 94.000000"
 preserveAspectRatio="xMidYMid meet">

<g transform="translate(0.000000,94.000000) scale(0.100000,-0.100000)"
fill="#ffffff" stroke="none">
<path d="M503 926 c-78 -19 -160 -65 -219 -123 -63 -62 -83 -93 -59 -93 8 0
15 4 15 9 0 5 24 33 54 63 232 231 627 135 743 -182 26 -69 36 -160 23 -195
-8 -22 -15 -26 -36 -22 -15 3 -23 0 -21 -7 6 -19 32 -17 60 4 25 20 27 27 27
95 0 301 -289 523 -587 451z"/>
<path d="M162 623 c-28 -5 -51 -43 -27 -43 9 0 25 5 36 10 10 6 19 7 19 3 -1
-13 -26 -43 -36 -43 -5 0 -14 -16 -20 -35 -12 -39 -6 -46 14 -15 12 20 12 20
63 1 45 -18 50 -18 47 -3 -2 9 -18 20 -36 26 -43 12 -40 22 8 30 29 5 43 13
49 29 16 39 -33 56 -117 40z m108 -29 c0 -5 -63 -34 -75 -34 -3 0 -1 9 5 20 7
13 21 20 40 20 17 0 30 -2 30 -6z"/>
<path d="M452 585 c-7 -15 -20 -25 -32 -25 -11 0 -30 -11 -42 -25 -29 -33 -39
-32 -31 5 7 37 -12 40 -51 9 -27 -21 -33 -43 -16 -54 16 -10 35 6 19 16 -12 8
-11 11 1 19 21 14 34 12 22 -3 -7 -8 -7 -18 -2 -27 8 -12 13 -13 29 -3 13 8
22 9 26 2 5 -6 12 -6 22 2 12 10 16 10 23 -2 8 -11 13 -12 28 -2 14 8 22 9 30
1 8 -8 18 -8 36 0 16 7 28 8 31 2 9 -14 41 -12 54 4 9 11 6 13 -14 11 -14 -2
-27 1 -31 6 -3 5 -9 7 -13 4 -5 -2 -6 7 -3 20 6 36 -23 33 -59 -6 -38 -41 -50
-29 -21 21 24 43 26 50 14 50 -5 0 -14 -11 -20 -25z m-42 -60 c-7 -9 -15 -13
-17 -11 -7 7 7 26 19 26 6 0 6 -6 -2 -15z m96 -12 c-10 -10 -19 5 -10 18 6 11
8 11 12 0 2 -7 1 -15 -2 -18z"/>
<path d="M651 583 c-42 -52 -36 -113 8 -86 13 8 21 9 29 1 8 -8 15 -8 26 1 11
9 15 9 19 -1 3 -10 9 -10 24 -1 15 8 23 9 31 1 8 -8 15 -8 24 0 15 12 35 11
56 -1 6 -5 17 -5 23 -1 8 4 7 9 -2 15 -12 8 -11 11 1 19 21 13 37 13 23 -1
-14 -14 -6 -39 12 -39 7 0 18 7 25 15 11 13 10 14 -4 9 -13 -5 -15 -1 -10 25
8 40 -12 41 -56 5 l-31 -27 6 29 7 29 -31 -35 c-22 -25 -31 -30 -31 -18 0 9 5
20 10 23 13 8 13 25 0 25 -5 0 -16 -13 -25 -30 -9 -16 -20 -30 -25 -30 -5 0
-7 14 -3 30 3 20 1 30 -6 30 -21 0 -68 -29 -74 -45 -7 -16 -37 -21 -37 -6 0 5
7 14 15 21 18 15 20 34 3 24 -8 -4 -10 -3 -5 2 5 5 14 9 20 9 7 0 13 8 15 18
5 25 -14 21 -37 -10z m69 -58 c-7 -8 -17 -15 -22 -15 -6 0 -5 7 2 15 7 8 17
15 22 15 6 0 5 -7 -2 -15z"/>
<path d="M564 548 c-15 -19 -16 -20 -1 -9 15 12 17 11 17 -3 0 -10 5 -14 10
-11 12 7 13 45 2 45 -5 0 -17 -10 -28 -22z"/>
<path d="M311 377 c-14 -6 -26 -18 -29 -24 -5 -16 30 -17 46 -1 26 26 20 0 -8
-33 -54 -63 -33 -86 50 -53 42 17 71 56 62 84 -12 39 -72 52 -121 27z m98 -26
c24 -16 2 -49 -45 -67 -24 -9 -47 -14 -50 -11 -10 9 49 87 66 87 8 0 21 -4 29
-9z"/>
<path d="M615 340 c-3 -5 -1 -10 4 -10 6 0 11 5 11 10 0 6 -2 10 -4 10 -3 0
-8 -4 -11 -10z"/>
<path d="M175 303 c11 -47 54 -111 110 -167 179 -176 473 -180 656 -9 54 50
116 140 104 151 -4 4 -12 -1 -19 -12 -66 -111 -130 -170 -226 -208 -45 -19
-75 -23 -165 -23 -107 0 -112 1 -188 37 -92 44 -181 127 -221 206 -29 57 -63
74 -51 25z"/>
<path d="M446 311 c-32 -35 -17 -55 41 -57 32 -2 56 3 63 10 8 10 5 13 -15 11
-30 -4 -40 8 -20 25 12 10 15 9 15 -4 0 -10 5 -14 10 -11 12 7 14 45 2 45 -5
0 -21 -13 -37 -30 -16 -16 -36 -30 -44 -30 -11 1 -7 7 12 21 15 11 27 25 27
30 0 16 -36 9 -54 -10z"/>
<path d="M638 300 c-43 -41 -69 -40 -31 2 15 17 15 18 -1 18 -22 0 -44 -46
-29 -61 8 -8 17 -8 31 0 15 8 21 8 24 -1 3 -7 10 -8 17 -4 11 7 11 10 0 17
-11 8 -10 12 5 24 27 21 42 19 24 -2 -9 -10 -14 -23 -11 -29 2 -6 -6 -19 -17
-29 -11 -10 -20 -23 -20 -29 0 -5 16 5 35 24 19 18 32 36 30 40 -2 3 0 12 5
20 5 8 3 18 -5 27 -18 18 -21 17 -57 -17z"/>
<path d="M775 320 c-4 -6 -15 -8 -25 -5 -23 7 -54 -37 -37 -54 9 -9 16 -6 29
11 l17 23 -6 -22 c-7 -29 8 -29 38 -2 l24 20 -25 -12 -24 -12 17 26 c9 14 13
29 8 32 -5 3 -13 1 -16 -5z"/>
</g>
</svg>
